<svg width="400" height="121" viewBox="0 0 400 121" fill="none" xmlns="http://www.w3.org/2000/svg">
<path fill-rule="evenodd" clip-rule="evenodd" d="M349.949 53.4178C349.958 61.2594 349.968 69.1019 349.939 76.9417C349.939 77.1896 349.967 77.4701 349.995 77.7607C350.11 78.954 350.243 80.3175 348.576 80.2981C346.711 80.2762 346.824 78.6484 346.923 77.2364C346.934 77.0802 346.945 76.9266 346.953 76.7781C346.941 76.3724 346.904 75.9678 346.844 75.5665C341.688 81.5219 330.668 82.0186 325.251 76.1723C322.55 73.3428 321.031 69.5885 321.005 65.6765C320.979 61.7645 322.448 57.9904 325.112 55.1254C330.619 49.1033 338.295 49.1336 346.922 55.6464V44.6868C346.934 42.9056 347.013 41.0881 347.098 39.2706C347.083 39.0928 347.107 38.9138 347.169 38.7465C347.231 38.5791 347.329 38.4275 347.456 38.3025C347.584 38.1775 347.737 38.0821 347.906 38.0233C348.074 37.9644 348.253 37.9435 348.431 37.9619C348.608 37.9513 348.786 37.9758 348.954 38.034C349.122 38.0922 349.277 38.1831 349.41 38.3013C349.543 38.4194 349.651 38.5627 349.728 38.7228C349.806 38.8829 349.851 39.0567 349.861 39.2342C349.933 40.0398 349.959 40.8489 349.939 41.6576C349.939 45.5767 349.944 49.4965 349.949 53.4165V53.4178ZM324.215 65.7942C324.173 71.9314 329.341 77.384 335.284 77.384C336.818 77.3913 338.338 77.0933 339.756 76.5073C341.173 75.9213 342.46 75.059 343.541 73.9708C344.622 72.8825 345.475 71.5899 346.052 70.1685C346.628 68.747 346.916 67.225 346.898 65.6913C346.898 58.8877 341.918 53.8107 335.187 53.8107C329.183 53.7865 324.264 59.1603 324.215 65.7942Z" fill="white"/>
<path d="M237.641 40.6458V59.027C237.633 65.255 237.637 71.4831 237.653 77.7111C237.654 77.8352 237.651 77.9634 237.649 78.0933C237.63 79.0918 237.609 80.1895 238.992 80.2859C240.652 80.4071 240.809 79.1106 240.809 77.808V40.7367C240.809 39.4947 240.809 38.0407 239.21 37.9741C237.608 37.9131 237.624 39.1859 237.638 40.331L237.638 40.3321C237.64 40.4381 237.641 40.5431 237.641 40.6458Z" fill="white"/>
<path d="M165.098 65.4307C164.855 59.3057 168.175 54.8588 173.464 52.1386C178.608 49.4911 184 50.0363 188.974 53.1867C189.045 53.2335 189.118 53.2804 189.191 53.3275C190.067 53.8907 191.018 54.5028 190.185 55.7494C189.337 57.0156 188.368 56.4461 187.338 55.7979C177.893 49.8485 168.993 57.0096 168.187 64.1342C167.642 68.981 169.611 72.8462 173.592 75.4998C177.572 78.1534 181.873 78.0807 186.211 76.0511C186.505 75.9099 186.821 75.6858 187.147 75.4548C188.22 74.6948 189.398 73.8605 190.216 75.6634C190.92 77.2167 189.345 77.9646 188.033 78.5879C187.81 78.694 187.594 78.7964 187.399 78.8986C177.33 84.133 165.037 76.8266 165.098 65.4307Z" fill="white"/>
<path d="M286.932 65.2853C286.932 68.0378 286.938 70.7876 286.943 73.5293L286.943 73.5532C286.946 74.9071 286.948 76.2589 286.95 77.6081C286.944 78.8683 286.981 80.3647 288.477 80.4374C290.015 80.5172 289.978 79.2514 289.946 78.1622L289.946 78.1614C289.941 78.0106 289.937 77.8632 289.937 77.7232C289.937 76.1193 289.921 74.5181 289.905 72.9167V72.9126C289.872 69.7064 289.84 66.4993 289.937 63.2679C290.113 57.5912 294.172 53.6774 299.509 53.7501C304.465 53.8107 308.088 57.7305 308.227 63.2982C308.304 66.3302 308.339 69.3622 308.375 72.3942L308.375 72.3963C308.395 74.18 308.416 75.9637 308.445 77.7475C308.448 77.8701 308.447 77.9967 308.446 78.125C308.439 79.1253 308.431 80.2248 309.827 80.2678C311.301 80.3412 311.258 79.2473 311.22 78.28C311.214 78.1302 311.208 77.9834 311.208 77.8444V62.1834C311.246 60.0657 310.609 57.9908 309.391 56.2583C305.295 50.3029 297.989 48.8792 291.967 52.9686C291.818 53.0661 291.668 53.1879 291.519 53.3085C290.871 53.8326 290.252 54.3334 289.961 52.7081C289.737 51.6115 289.398 50.5937 288.144 50.8179C286.929 51.035 286.931 52.1384 286.932 53.1433L286.932 65.2853Z" fill="white"/>
<path d="M399.83 82.6972C399.909 82.2849 399.962 81.868 399.988 81.4492L400 52.3264C400.003 52.0255 399.911 51.7314 399.736 51.4863C399.562 51.2412 399.314 51.0577 399.029 50.9621C398.743 50.8665 398.435 50.8638 398.148 50.9544C397.861 51.0449 397.61 51.2241 397.431 51.4661C397.025 52.2049 396.862 53.0528 396.965 53.8895C397.083 57.219 397.062 60.5549 397.041 63.8925V63.8933L397.041 63.9014C397.033 65.1885 397.025 66.4759 397.025 67.7632C397.001 73.0886 393.166 77.2083 388.18 77.2991C382.818 77.4021 378.971 73.6823 378.844 68.0783C378.785 65.3202 378.798 62.57 378.81 59.8154V59.8141C378.819 57.7466 378.829 55.6765 378.808 53.5987C378.806 53.4315 378.813 53.2539 378.821 53.0726V53.0695C378.863 52.0357 378.91 50.8797 377.33 50.8179C375.668 50.7529 375.699 52.0216 375.724 53.0921C375.727 53.2202 375.73 53.3455 375.73 53.4654C375.726 54.2108 375.721 54.9563 375.715 55.7019V55.7059C375.684 60.1887 375.653 64.6741 375.809 69.1506C376.015 75.0757 380.595 79.6074 386.496 80.3526C389.294 80.6961 392.124 80.0534 394.499 78.5351C394.733 78.3941 395.002 78.3233 395.274 78.331C395.547 78.3386 395.812 78.4245 396.037 78.5783C396.263 78.7321 396.439 78.9474 396.545 79.1986C396.652 79.4498 396.684 79.7263 396.638 79.9951C395.468 86.4958 389.186 90.4519 382.388 88.4769C382.21 88.4248 382.026 88.363 381.84 88.3006C380.729 87.9276 379.541 87.5293 379.074 88.9979C378.582 90.5453 379.995 90.9923 381.139 91.3542C381.263 91.3933 381.383 91.4314 381.498 91.4697C387.774 93.5357 395.347 91.1123 398.734 85.4962C399.278 84.6432 399.65 83.6925 399.83 82.6972Z" fill="white"/>
<path d="M365.552 59.1724V77.5354C365.552 77.6497 365.554 77.7664 365.556 77.884C365.573 79.0144 365.591 80.2377 364.05 80.2981C362.424 80.3617 362.428 78.9773 362.432 77.8183C362.432 77.7639 362.432 77.7099 362.432 77.6566V40.6277C362.432 40.5274 362.43 40.4243 362.429 40.3197V40.3191C362.413 39.2099 362.396 37.9284 364.062 38.0225C365.629 38.1111 365.581 39.2564 365.536 40.3035C365.529 40.4744 365.522 40.6427 365.522 40.8034C365.552 45.1791 365.551 49.5518 365.551 53.9258C365.551 55.6744 365.55 57.4232 365.552 59.1724Z" fill="white"/>
<path fill-rule="evenodd" clip-rule="evenodd" d="M275.185 66.291C277.36 66.3456 278.02 65.3338 277.844 63.3224C277.075 54.5256 267.236 48.2552 258.924 51.345C253.259 53.4472 249.836 57.5972 249.097 63.5587C248.358 69.5202 250.436 74.4638 255.368 77.9898C261.747 82.576 271.447 80.71 275.276 74.2639C275.315 74.1988 275.354 74.1339 275.394 74.0692C275.842 73.3379 276.28 72.6242 275.373 71.8951C274.385 71.1014 273.555 71.3922 272.864 72.4343C272.624 72.7576 272.357 73.0597 272.065 73.337C269.363 76.3662 266.103 78.22 261.965 77.4022C257.119 76.457 253.956 73.5611 252.472 68.7689C251.866 66.8 252.393 66.1881 254.326 66.2183C256.676 66.2507 259.027 66.2399 261.378 66.2291C262.553 66.2237 263.728 66.2183 264.904 66.2183V66.2608C266.077 66.2649 267.249 66.2598 268.421 66.2548C270.675 66.245 272.929 66.2352 275.185 66.291ZM263.474 63.2255C262.462 63.2255 261.454 63.2214 260.448 63.2174C258.441 63.2093 256.44 63.2013 254.435 63.2255C252.617 63.2255 252.011 62.7287 252.908 60.9233C254.932 56.7491 257.961 54.0107 262.783 53.7017C268.054 53.3624 271.477 56.125 273.828 60.481C274.718 62.141 274.7 63.3224 272.216 63.2194C270.299 63.1595 268.379 63.1812 266.456 63.203C265.463 63.2142 264.469 63.2255 263.474 63.2255Z" fill="white"/>
<path fill-rule="evenodd" clip-rule="evenodd" d="M225.899 63.0598C225.927 67.7131 225.955 72.3681 225.912 77.0144C225.91 77.2473 225.932 77.5079 225.955 77.7776C226.054 78.9456 226.168 80.2826 224.367 80.2678C222.749 80.249 222.812 79.0537 222.872 77.9103C222.89 77.5769 222.907 77.2479 222.883 76.9538C222.86 76.7734 222.861 76.5698 222.863 76.3606C222.864 76.1273 222.866 75.8869 222.834 75.6634C215.413 81.5703 206.489 81.8914 201.097 75.5119C196.25 69.7807 196.25 61.0263 201.097 55.5737C206.743 48.752 218.187 50.4847 222.816 55.7979C222.881 55.2448 222.855 54.62 222.829 54.0043C222.799 53.3049 222.77 52.6173 222.877 52.0599C222.914 51.7063 223.077 51.3779 223.336 51.1344C223.595 50.8909 223.933 50.7485 224.288 50.7331C224.463 50.7148 224.639 50.7319 224.807 50.7834C224.975 50.835 225.13 50.9199 225.264 51.033C225.398 51.1462 225.508 51.2853 225.587 51.442C225.666 51.5986 225.713 51.7696 225.724 51.9447C225.83 52.5446 225.876 53.1533 225.863 53.7623C225.861 56.8586 225.88 59.9588 225.899 63.0598ZM200.497 65.9154C200.467 71.8103 205.574 77.2386 211.372 77.4264H211.366C217.448 77.6263 222.646 72.3979 222.816 65.9154C222.986 59.1967 218.199 53.8774 211.844 53.7441C205.489 53.6108 200.557 58.8998 200.497 65.9154Z" fill="white"/>
<path d="M71.0543 80.4602C70.6796 80.7246 70.2188 81.0498 69.5929 81.4249C65.6518 83.4128 61.1112 83.8599 56.8581 82.679C56.4879 82.5383 56.1177 82.4039 55.7475 82.2694C54.906 81.9638 54.0646 81.6582 53.2231 81.2795C50.8533 80.2236 48.7443 78.6604 47.0447 76.7002C45.3451 74.7401 44.0965 72.4308 43.387 69.9354C42.6775 67.4399 42.5244 64.8192 42.9384 62.2581C43.3525 59.697 44.3237 57.258 45.7834 55.1133C51.448 46.5467 61.9593 44.4808 71.6527 50.0121C71.8189 50.1059 71.9895 50.2227 72.1626 50.3411C72.8726 50.8272 73.6233 51.3412 74.276 50.4059C74.9532 49.4356 74.1171 48.9164 73.3676 48.4509C73.2185 48.3583 73.0728 48.2678 72.9432 48.1764C63.0922 41.1971 48.4188 44.9715 42.5421 55.9554C36.508 67.2482 44.1355 82.6184 56.737 84.5571C60.0151 85.2844 63.4128 85.2844 66.6909 84.5571C66.8964 84.4867 67.1025 84.4169 67.3089 84.3471C69.4456 83.6243 71.6069 82.8933 73.2643 81.2856C73.4025 81.1498 73.4948 80.9741 73.528 80.7832C73.5612 80.5923 73.5338 80.3958 73.4495 80.2213C73.3653 80.0467 73.2285 79.903 73.0583 79.8103C72.8882 79.7176 72.6932 79.6805 72.5009 79.7043C72.0255 79.7749 71.648 80.0413 71.0543 80.4602Z" fill="white"/>
<path fill-rule="evenodd" clip-rule="evenodd" d="M115.219 18.9628V99.7334C115.219 100.686 115.231 101.639 115.243 102.593C115.269 104.549 115.294 106.506 115.213 108.458C114.819 116.854 111.517 119.69 108.155 120.423C107.454 120.583 106.74 120.676 106.022 120.702H8.48176C2.8838 120.605 0.030292 117.818 0 112.256V15.976C0 10.5416 2.92015 5.12541 9.52987 4.84672C13.5829 4.68314 18.1752 4.58621 22.198 4.63468C22.6038 4.63928 23.0212 4.65548 23.4377 4.67165C25.7638 4.76193 28.0637 4.8512 28.1716 2.91409C28.2079 2.22343 28.6381 0 30.3284 0H33.2849C35.2296 0 35.3568 1.97504 35.3992 3.08373C35.4689 4.74627 37.0886 4.67068 38.8 4.5908C39.1716 4.57346 39.5475 4.55592 39.9128 4.55592H75.2878C75.6562 4.55699 76.0409 4.57594 76.4248 4.59486C78.2187 4.68325 79.9966 4.77086 80.0315 3.0292C80.0557 1.91445 80.1587 0 82.2973 0H84.5753C85.7809 0 87.0592 0.0484672 87.1016 3.13219C87.1249 4.73743 88.1923 4.73464 89.2585 4.73184C89.303 4.73173 89.3474 4.73161 89.3917 4.73161C90.7665 4.73161 92.142 4.72623 93.5179 4.72085C96.2711 4.71007 99.0262 4.6993 101.781 4.73161C110.742 4.84672 115.182 10.1175 115.219 18.9628ZM13.6617 114.098H101.648C106.737 114.098 108.742 112.08 108.754 106.955C108.73 78.4078 108.718 49.8607 108.718 21.3135C108.722 20.0065 108.659 18.7003 108.53 17.3997C108.209 14.2857 106.161 12.2319 103.005 12.1592C100.418 12.0983 97.8282 12.1092 95.2373 12.1202C93.1917 12.1288 91.1457 12.1375 89.1009 12.1107C87.4833 12.0865 87.0047 12.7711 87.0714 14.2918C87.2158 16.3983 87.1996 18.5127 87.0229 20.6167C86.8048 22.5675 85.7143 24.0519 83.4424 23.9004C81.3704 23.755 80.4738 22.3252 80.3526 20.4471C80.2072 18.5415 80.2072 16.6275 80.3526 14.7219C80.5343 12.7166 79.7649 12.1107 77.802 12.1107C64.2918 12.1713 50.7856 12.1713 37.2834 12.1107C35.4053 12.0986 34.7813 12.7832 34.8964 14.6007C34.9911 16.417 34.9911 18.237 34.8964 20.0533C34.8055 22.1859 33.921 23.8701 31.54 23.9367C29.1591 24.0034 28.2382 22.2586 28.0807 20.1624C27.9595 18.357 27.9595 16.5455 28.0807 14.7401C28.1958 12.8135 27.5294 12.0744 25.4998 12.141C22.1852 12.2437 18.8445 12.2029 15.5145 12.1622C14.9126 12.1549 14.3111 12.1475 13.7102 12.141C8.82709 12.0805 6.62183 14.1403 6.62183 18.9264V62.9589C6.62183 70.2949 6.61123 77.6308 6.60063 84.9676C6.59003 92.3058 6.57942 99.6448 6.57942 106.985C6.57942 112.165 8.45753 114.098 13.6617 114.098Z" fill="white"/>
</svg>
