<svg width="400" height="71" viewBox="0 0 400 71" fill="none" xmlns="http://www.w3.org/2000/svg">
<path fill-rule="evenodd" clip-rule="evenodd" d="M340.739 30.3453C340.739 36.8544 359.832 32.9201 359.832 46.152C359.832 53.3046 353.657 57.1676 345.991 57.1676C338.894 57.1676 333.784 53.9487 331.513 48.7987L338.114 44.9363C339.249 48.1551 342.088 50.0863 345.991 50.0863C349.398 50.0863 352.025 48.9419 352.025 46.0807C352.025 39.7149 332.932 43.2915 332.932 30.4886C332.932 23.765 338.681 19.5449 345.921 19.5449C351.741 19.5449 356.568 22.2629 359.051 26.9839L352.593 30.6312C351.315 27.8419 348.831 26.5543 345.921 26.5543C343.153 26.5543 340.739 27.7706 340.739 30.3453ZM106.31 49.5857C110.569 49.5857 114.046 47.3681 115.75 44.0779L122.351 47.869C119.37 53.5194 113.337 57.1673 106.381 57.1673C95.6633 57.1673 87.6434 48.9416 87.6434 38.3557C87.6434 27.699 95.6633 19.5446 106.381 19.5446C113.337 19.5446 119.37 23.1931 122.209 28.7722L115.608 32.634C114.046 29.2719 110.569 27.1268 106.31 27.1268C100.064 27.1268 95.3089 31.9185 95.3089 38.3557C95.3089 44.7934 100.064 49.5857 106.31 49.5857ZM34.9497 0C54.252 0 69.8994 15.769 69.8994 35.22C69.8994 54.6716 54.252 70.4394 34.9497 70.4394C15.6479 70.4394 0 54.6716 0 35.22C0 15.769 15.6479 0 34.9497 0ZM34.9263 62.6923C49.9824 62.6923 62.1877 50.3926 62.1877 35.22C62.1877 20.0474 49.9824 7.74777 34.9263 7.74777C19.8702 7.74777 7.66491 20.0474 7.66491 35.22C7.66491 50.3926 19.8702 62.6923 34.9263 62.6923ZM34.1253 33.9031L48.5738 19.8662L51.982 23.3007L34.4031 44.1195L23.6662 32.3538L27.0744 28.9187L34.1253 33.9031ZM128.05 56.2373V6.16945H135.715V56.2373H128.05ZM160.841 19.5447C171.274 19.5447 179.579 27.6991 179.579 38.3557C179.579 48.9416 171.274 57.1673 160.841 57.1673C150.478 57.1673 142.104 48.9416 142.104 38.3557C142.104 27.6991 150.478 19.5447 160.841 19.5447ZM160.841 49.6571C167.087 49.6571 171.914 44.8647 171.914 38.3557C171.914 31.8473 167.087 27.055 160.841 27.055C154.595 27.055 149.769 31.8473 149.769 38.3557C149.769 44.8647 154.595 49.6571 160.841 49.6571ZM203.541 49.5857C207.8 49.5857 211.278 47.3681 212.981 44.0779L219.582 47.869C216.601 53.5194 210.568 57.1673 203.613 57.1673C192.895 57.1673 184.875 48.9416 184.875 38.3557C184.875 27.699 192.895 19.5446 203.613 19.5446C210.568 19.5446 216.601 23.1931 219.44 28.7722L212.839 32.634C211.278 29.2719 207.8 27.1268 203.541 27.1268C197.295 27.1268 192.54 31.9185 192.54 38.3557C192.54 44.7934 197.295 49.5857 203.541 49.5857ZM256.25 20.4749L241.644 36.3358L256.818 56.2376H246.898L236.434 41.9932L233.112 45.6004V56.2376H225.446V6.16975H233.112V35.0316L246.881 20.4749H256.25ZM296.479 45.1509L303.436 20.4749H311.526L300.383 56.2371H292.86L285.478 32.1334L278.026 56.2371H270.502L259.359 20.4749H267.45L274.335 45.1509L281.788 20.4749H289.098L296.479 45.1509ZM321.419 5.2401C324.116 5.2401 326.317 7.4577 326.317 10.1751C326.317 12.8217 324.116 15.1106 321.419 15.1106C318.722 15.1106 316.522 12.8217 316.522 10.1751C316.522 7.4577 318.722 5.2401 321.419 5.2401ZM317.586 56.2373V20.4746H325.252V56.2373H317.586ZM400 38.356C400 39.1421 399.961 39.9147 399.883 40.6726L371.994 40.6743C372.416 45.7731 376.589 50.0863 382.389 50.0863C386.613 50.0863 389.146 48.4899 390.601 45.9216L398.987 45.9234C397.024 52.9917 390.411 57.1676 382.389 57.1676C372.026 57.1676 364.215 48.9419 364.215 38.356C364.215 27.6993 372.026 19.5449 382.389 19.5449C392.822 19.5449 400 27.6993 400 38.356ZM372.488 34.6674H391.783C391.361 30.2251 387.656 26.5543 382.389 26.5543C376.918 26.5543 373.26 30.4137 372.488 34.6674Z" fill="white"/>
</svg>
