<svg width="401" height="83" viewBox="0 0 401 83" fill="none" xmlns="http://www.w3.org/2000/svg">
<path d="M325.482 0.0195312H304.66V81.3072H325.482V0.0195312Z" fill="white"/>
<path fill-rule="evenodd" clip-rule="evenodd" d="M77.2458 41.2464C77.2458 11.9841 57.5792 3.74851 29.464 3.74851H0.0869141V79.398H29.464C57.5792 79.398 77.2458 71.1624 77.2458 41.8973C77.2458 41.841 77.2443 41.7867 77.2429 41.7328C77.2414 41.6795 77.24 41.6265 77.24 41.5722C77.24 41.5175 77.2414 41.4643 77.2429 41.4109C77.2443 41.3569 77.2458 41.3027 77.2458 41.2464ZM21.6038 18.7048H29.9306C45.6642 18.7048 55.0364 26.506 55.0364 41.5722C55.0364 56.6378 45.6642 64.439 29.9306 64.439H21.6038V18.7048Z" fill="white"/>
<path fill-rule="evenodd" clip-rule="evenodd" d="M115.87 23.5406C95.9725 23.5406 80.817 34.3777 80.817 53.1287C80.817 71.7698 95.9725 82.6069 115.87 82.6069C135.766 82.6069 150.922 71.7698 150.922 53.1287C150.922 34.3777 135.766 23.5406 115.87 23.5406ZM115.87 37.195C125.469 37.195 129.405 44.6739 129.405 53.1287C129.405 61.4736 125.469 68.9524 115.87 68.9524C106.27 68.9524 102.335 61.4736 102.335 53.1287C102.335 44.6739 106.27 37.195 115.87 37.195Z" fill="white"/>
<path fill-rule="evenodd" clip-rule="evenodd" d="M188.961 23.5406C169.064 23.5406 153.909 34.3777 153.909 53.1287C153.909 71.7698 169.064 82.6069 188.961 82.6069C208.858 82.6069 224.011 71.7698 224.011 53.1287C224.011 34.3777 208.858 23.5406 188.961 23.5406ZM175.426 53.1287C175.426 44.6739 179.359 37.195 188.961 37.195C198.561 37.195 202.494 44.6739 202.494 53.1287C202.494 61.4736 198.561 68.9524 188.961 68.9524C179.359 68.9524 175.426 61.4736 175.426 53.1287Z" fill="white"/>
<path fill-rule="evenodd" clip-rule="evenodd" d="M276.28 0.0195312V25.6449C271.965 24.2605 267.167 23.5399 262.05 23.5399C242.153 23.5399 226.998 34.377 226.998 53.1281C226.998 71.7691 242.153 82.6062 262.05 82.6062C267.167 82.6062 272.595 80.5784 276.28 78.4038V81.3065H297.103V0.0195312H276.28ZM262.05 68.9518C252.451 68.9518 248.515 61.4729 248.515 53.1281C248.515 44.6732 252.451 37.1944 262.05 37.1944C271.65 37.1944 275.582 44.6732 275.582 53.1281C275.582 61.4729 271.65 68.9518 262.05 68.9518Z" fill="white"/>
<path fill-rule="evenodd" clip-rule="evenodd" d="M365.957 23.5406C369.864 23.5406 373.326 24.005 376.396 24.843C390.422 28.2362 400.087 38.156 400.087 53.1287C400.087 54.2194 400.032 55.2842 399.933 56.319C399.847 57.1516 399.728 57.963 399.583 58.7634H354.736C355.591 64.5231 359.293 67.6793 365.265 68.9415C367.378 69.3868 369.772 69.6033 372.438 69.6033C378.108 69.6033 384.587 68.4108 390.834 65.2676V79.0314C384.125 81.5264 376.487 82.6069 368.736 82.6069C368.118 82.6069 367.5 82.5987 366.888 82.5775C366.276 82.5987 365.658 82.6069 365.032 82.6069C345.137 82.6069 329.981 71.7698 329.981 53.1287C329.981 34.3777 345.137 23.5406 365.032 23.5406C365.113 23.5406 365.193 23.5426 365.272 23.5447C365.351 23.5467 365.43 23.5487 365.51 23.5487C365.586 23.5487 365.661 23.5467 365.735 23.5446C365.809 23.5426 365.883 23.5406 365.957 23.5406ZM367.301 37.195C359.84 37.195 355.816 41.7199 354.384 47.6989H380.218C378.789 41.7199 374.759 37.195 367.301 37.195Z" fill="white"/>
</svg>
