<svg width="400" height="105" viewBox="0 0 400 105" fill="none" xmlns="http://www.w3.org/2000/svg">
<path d="M6.38437e-05 16.7325C-0.00420904 16.1885 0.206148 15.6645 0.585832 15.2735C0.778082 15.0833 1.00683 14.9335 1.25843 14.8333C1.51003 14.733 1.77933 14.6843 2.05025 14.6899H46.471C47.0242 14.6899 47.5449 14.8845 47.9029 15.2735C48.2934 15.6626 48.5212 16.2137 48.5212 16.7325V28.6312C48.5212 29.15 48.2934 29.7011 47.9029 30.0902C47.7145 30.2765 47.491 30.424 47.2453 30.5241C46.9996 30.6243 46.7365 30.6751 46.471 30.6738H16.727V46.3982H41.1665C41.4373 46.4015 41.7044 46.4608 41.9509 46.5725C42.1974 46.6841 42.4179 46.8456 42.5984 47.0467C42.9889 47.4033 43.2167 47.922 43.2493 48.4732V60.3395C43.2244 60.8807 42.9914 61.3916 42.5984 61.766C42.2245 62.1603 41.7106 62.3931 41.1665 62.4145H16.7595V88.8381C16.7271 89.3869 16.4958 89.9053 16.1087 90.297C15.7428 90.6837 15.2419 90.9158 14.7094 90.9455H2.01771C1.74729 90.9403 1.48079 90.8801 1.23456 90.7686C0.988332 90.657 0.767573 90.4966 0.585832 90.297C0.211077 89.916 0.000836307 89.404 6.38437e-05 88.8705V16.7325ZM59.6833 16.7325C59.6833 16.2137 59.8786 15.6626 60.2691 15.2735C60.4575 15.0872 60.6809 14.9397 60.9267 14.8396C61.1724 14.7394 61.4355 14.6886 61.701 14.6899H106.154C106.425 14.6843 106.694 14.733 106.946 14.8333C107.198 14.9335 107.426 15.0833 107.619 15.2735C107.998 15.6645 108.209 16.1885 108.204 16.7325V28.6312C108.205 29.1746 107.995 29.6973 107.619 30.0902C107.426 30.2804 107.198 30.4302 106.946 30.5304C106.694 30.6307 106.425 30.6795 106.154 30.6738H76.4428V44.1936H100.85C101.403 44.1936 101.924 44.4205 102.314 44.8096C102.705 45.1986 102.933 45.7174 102.965 46.2685V58.1348C102.965 58.686 102.737 59.2047 102.347 59.5938C101.97 59.9791 101.455 60.2004 100.915 60.2098H76.4753V74.8968H106.154C106.427 74.8953 106.698 74.9492 106.95 75.055C107.202 75.1609 107.429 75.3167 107.619 75.5128C107.998 75.9038 108.209 76.4277 108.204 76.9718V88.8381C108.197 89.386 107.975 89.9093 107.586 90.297C107.398 90.4834 107.174 90.6308 106.929 90.731C106.683 90.8311 106.42 90.882 106.154 90.8806H61.701C61.4355 90.882 61.1724 90.8311 60.9267 90.731C60.6809 90.6308 60.4575 90.4834 60.2691 90.297C60.0771 90.0995 59.9265 89.8659 59.826 89.6099C59.7254 89.3539 59.6769 89.0805 59.6833 88.8056V16.7325ZM121.71 16.7325C121.712 16.321 121.837 15.9194 122.068 15.5788C122.3 15.2382 122.628 14.9739 123.011 14.8196C123.25 14.7288 123.504 14.6848 123.76 14.6899H136.549C137.07 14.6899 137.59 14.9169 137.981 15.3059C138.339 15.695 138.567 16.2137 138.599 16.7325V74.9292H164.113C164.659 74.9377 165.181 75.1601 165.564 75.5483C165.948 75.9365 166.163 76.4594 166.163 77.0042V88.8705C166.164 89.1457 166.107 89.418 165.995 89.6695C165.882 89.921 165.718 90.146 165.512 90.3294C165.14 90.6979 164.638 90.9073 164.113 90.913H123.76C123.494 90.9162 123.23 90.8662 122.984 90.7659C122.739 90.6657 122.515 90.5173 122.328 90.3294C122.138 90.1368 121.989 89.9087 121.889 89.6583C121.788 89.4079 121.738 89.1401 121.742 88.8705V16.7325H121.71ZM267.566 45.8146C267.931 46.3049 268.464 46.6449 269.063 46.7703C269.663 46.8958 270.288 46.798 270.82 46.4955C278.565 41.9241 305.185 26.8804 313.191 11.9341C319.96 -0.710307 305.804 0.359605 297.668 1.88342C294.088 2.56427 290.769 4.12051 287.905 6.39002C280.388 12.3232 268.575 23.3465 267.078 43.999C267.045 44.6475 267.208 45.2959 267.566 45.8146ZM219.728 75.0913C219.462 74.9698 219.174 74.9036 218.882 74.8968H193.304V16.7325C193.275 16.1921 193.043 15.6824 192.653 15.3059C192.287 14.9193 191.786 14.6872 191.253 14.6575H178.464C178.194 14.6646 177.928 14.7256 177.682 14.837C177.436 14.9484 177.215 15.1079 177.032 15.3059C176.66 15.6889 176.451 16.1997 176.446 16.7325V88.8705C176.442 89.1399 176.492 89.4075 176.594 89.6573C176.695 89.9071 176.846 90.134 177.037 90.3245C177.228 90.5151 177.456 90.6654 177.707 90.7665C177.958 90.8676 178.226 90.9174 178.497 90.913H202.741C207.666 84.9251 213.367 79.6156 219.696 75.1237L219.728 75.0913ZM298.937 36.0882C294.022 39.15 288.961 41.974 283.772 44.5502C285.739 49.3943 285.912 54.7776 284.261 59.7374C282.609 64.6971 279.241 68.9098 274.758 71.6222C271.796 73.373 268.445 74.378 264.995 74.5401C264.003 80.5564 261.954 86.3513 258.942 91.6587C264.832 92.4253 270.819 91.8297 276.44 89.918C282.062 88.0063 287.165 84.8299 291.355 80.6354C294.977 76.9722 297.837 72.6315 299.77 67.863C301.702 63.0945 302.669 57.9923 302.614 52.8501C302.614 47.0791 301.378 41.3405 298.937 36.0882ZM244.233 61.1176C242.627 57.1647 242.202 52.8334 243.011 48.6456C243.819 44.4578 245.826 40.5923 248.789 37.5147C252.726 33.4491 258.121 31.1055 263.791 30.998C264.995 25.0324 267.208 19.3262 270.299 14.1063C263.16 12.9052 255.824 13.7484 249.147 16.538C244.42 18.5233 240.139 21.4306 236.557 25.0887C232.974 28.7469 230.163 33.082 228.287 37.8389C226.364 42.6104 225.392 47.7087 225.423 52.8501C225.423 58.459 226.595 64.0031 228.84 69.0933C233.812 66.1407 238.952 63.4777 244.233 61.1176V61.1176ZM260.504 59.7559C260.139 59.2651 259.604 58.927 259.002 58.8072C258.401 58.6874 257.776 58.7944 257.25 59.1075C249.537 63.6465 223.503 78.9495 215.498 93.7986C208.729 106.443 222.917 105.373 231.053 103.849C234.631 103.193 237.987 101.655 240.816 99.3751C246.708 94.8879 251.559 89.1885 255.041 82.665C258.523 76.1414 260.553 68.947 260.992 61.5715C261.048 60.928 260.875 60.2854 260.504 59.7559V59.7559ZM397.834 14.6899H385.273C384.833 14.7248 384.413 14.8879 384.066 15.1589C383.719 15.4299 383.459 15.7968 383.32 16.2138L374.111 53.1095H373.688L357.058 14.852C356.923 14.481 356.672 14.1629 356.342 13.9442C356.011 13.7105 355.609 13.5962 355.203 13.62H353.251C352.875 13.6367 352.511 13.7579 352.2 13.9699C351.89 14.1819 351.645 14.4762 351.493 14.8196L334.799 53.1095H334.376L325.166 16.2462C321.065 20.6255 316.578 24.6295 311.759 28.2097L329.039 90.4916C329.148 90.9259 329.399 91.3116 329.753 91.5877C330.106 91.8637 330.542 92.0142 330.992 92.0154H332.684C333.063 91.9959 333.431 91.878 333.751 91.6732C334.07 91.4685 334.331 91.1841 334.506 90.8482L354.064 46.301H354.39L374.013 90.913C374.187 91.253 374.446 91.5422 374.765 91.7524C375.085 91.9627 375.453 92.0868 375.835 92.1126H377.593C378.041 92.106 378.474 91.9534 378.826 91.6783C379.179 91.4031 379.432 91.0204 379.545 90.5888L399.819 17.4133C399.928 17.1795 399.989 16.9264 399.999 16.6688C400.008 16.4113 399.966 16.1544 399.876 15.9131C399.785 15.6717 399.647 15.4508 399.469 15.2631C399.292 15.0754 399.079 14.9246 398.843 14.8196C398.523 14.6928 398.173 14.6591 397.834 14.7224V14.6899ZM264.051 57.7458C266.752 57.7458 268.933 55.5411 268.933 52.7853C268.933 50.0619 266.752 47.8248 264.051 47.8248C261.35 47.8248 259.17 50.0619 259.17 52.7853C259.17 55.5411 261.35 57.7458 264.051 57.7458Z" fill="white"/>
</svg>
