<svg width="401" height="81" viewBox="0 0 401 81" fill="none" xmlns="http://www.w3.org/2000/svg">
<path d="M46.2799 13.8641C46.2875 13.8786 46.2907 13.895 46.2891 13.9112C46.2875 13.9275 46.2812 13.943 46.271 13.9558C46.2608 13.9685 46.2471 13.9781 46.2315 13.9832C46.216 13.9883 46.1993 13.9888 46.1835 13.9846C43.5614 13.0624 43.4167 14.292 43.5433 16.0883C44.0778 23.7718 44.552 31.4694 44.9659 39.181C45.1226 42.1226 43.8085 43.726 41.4878 43.7863C39.1671 43.8466 37.624 42.1166 37.7686 39.0544C37.9819 34.5538 38.2472 30.0554 38.5126 25.5565C38.6897 22.5536 38.8668 19.5505 39.0284 16.5465C39.034 16.4401 39.0414 16.3302 39.0488 16.2182C39.1297 15.0039 39.2269 13.5437 37.3286 13.6651C37.0309 13.6888 36.7814 13.7624 36.6047 13.8145C36.3306 13.8954 36.2317 13.9246 36.4003 13.635C36.4907 13.4602 37.202 12.2908 37.3105 12.122C39.0345 9.43962 40.8308 7.93265 41.1081 7.93265C41.3853 7.93265 43.7121 9.83143 46.2799 13.8641Z" fill="white"/>
<path d="M69.8427 40.0249C69.8427 39.6572 67.7089 37.867 63.3327 34.7566C64.1886 37.6078 63.0855 37.9755 61.1144 37.7163C58.5405 37.3908 55.9425 37.2461 53.3505 37.1135C52.7654 37.0838 52.2012 37.0503 51.6772 37.0192C49.7506 36.9048 48.3676 36.8227 48.4861 37.0833C48.8056 37.8006 48.8598 41.4957 48.4198 43.3463C48.3709 43.5682 48.8809 43.5156 49.673 43.4339C49.9566 43.4047 50.2767 43.3717 50.6199 43.3463C54.0076 43.1172 57.1903 42.8279 60.5719 42.5144L60.7029 42.502C62.5155 42.3303 64.174 42.1732 63.8149 45.028C67.7872 42.1286 69.8427 40.3926 69.8427 40.0249Z" fill="white"/>
<path fill-rule="evenodd" clip-rule="evenodd" d="M1.12528 25.3953C1.0412 25.6021 0.998207 25.8232 0.998697 26.0463V54.2506C0.987025 54.5236 1.03006 54.7962 1.12528 55.0524C2.21029 57.6986 4.34415 58.3858 7.12299 58.3014C9.19191 58.2378 11.2636 58.2546 13.3347 58.2713C15.584 58.2895 17.8331 58.3077 20.0768 58.223C22.5181 58.1326 23.4946 58.862 23.3982 61.4298C23.2615 65.3082 23.3034 69.1907 23.3453 73.074C23.3533 73.8139 23.3613 74.554 23.368 75.2939C23.4042 79.1276 24.5736 80.3874 28.4435 80.3874C37.0874 80.4397 45.7273 80.4397 54.3632 80.3874C58.0764 80.3633 59.282 79.1577 59.282 75.4988C59.3423 70.6765 59.3844 65.8543 59.282 61.032C59.2702 60.661 59.3347 60.2915 59.4715 59.9465C59.6083 59.6014 59.8144 59.2881 60.0772 59.0259C60.3399 58.7637 60.6537 58.5583 60.999 58.4222C61.3444 58.2862 61.714 58.2225 62.0849 58.2351C66.9072 58.3375 71.7295 58.3134 76.5518 58.2351C80.2589 58.1748 81.2113 57.2164 81.2113 53.5273C81.2515 44.59 81.2515 35.6507 81.2113 26.7094C81.1992 23.0806 80.2227 22.1282 76.4794 22.1282C75.4593 22.1201 74.4382 22.106 73.4167 22.092C69.9175 22.044 66.4127 21.9959 62.9228 22.1825C59.9028 22.3392 59.1373 21.1939 59.2579 18.3789C59.4186 14.6167 59.3701 10.8503 59.3215 7.08315C59.3118 6.32955 59.3021 5.57591 59.294 4.82228C59.2579 1.24174 58.1427 0.0361671 54.6466 0.0361671C45.8057 -0.0120557 36.9649 -0.0120557 28.124 0.0361671C24.6881 0.0542506 23.4283 1.36832 23.4283 4.84036C23.4201 5.61286 23.4099 6.38606 23.3996 7.15972V7.16037C23.3502 10.9021 23.3007 14.6549 23.4705 18.391C23.5911 21.212 22.8255 22.3573 19.8116 22.1825C17.6352 22.055 15.4589 22.0847 13.2825 22.1144C11.2394 22.1422 9.19625 22.1701 7.15313 22.068C4.23565 21.9233 2.22838 22.7913 1.12528 25.3953ZM38.1089 3.25974C39.2233 3.24835 40.3377 3.23696 41.4516 3.23696C42.5376 3.23696 43.624 3.24314 44.7113 3.24933C47.3417 3.26431 49.9769 3.27932 52.6212 3.20682C55.0565 3.14051 56.0752 4.10497 56.0269 6.57638C55.9874 8.86836 55.9963 11.1569 56.0052 13.4429C56.0166 16.3814 56.028 19.3163 55.9365 22.2488C55.8642 24.5936 56.5393 25.4436 58.9504 25.3772C61.6799 25.3031 64.4162 25.322 67.1539 25.341C69.5373 25.3574 71.9216 25.3739 74.3034 25.329C77.046 25.2808 78.2094 26.4683 78.1552 29.2049C78.0105 36.4384 77.9944 43.6718 78.1069 50.9052C78.1552 53.9432 76.7507 55.1428 73.8091 55.0765C71.7016 55.0317 69.5941 55.0548 67.4866 55.078C64.7719 55.1078 62.0569 55.1376 59.3423 55.0222C56.4851 54.9137 55.7738 55.9445 55.8823 58.6389C55.9896 61.2409 55.9653 63.8428 55.941 66.4448C55.9203 68.6651 55.8996 70.8854 55.9606 73.1058C56.033 75.8906 55.0745 77.1384 52.151 77.0962C47.3287 77.0319 42.5065 77.0533 37.6842 77.0748C35.273 77.0855 32.8619 77.0962 30.4508 77.0962C27.0993 77.0902 26.4965 76.4633 26.4664 72.9671C26.4621 72.4631 26.4577 71.9591 26.4533 71.4552C26.4137 66.9331 26.3742 62.4152 26.4664 57.8975C26.5146 55.8179 25.8154 55.0765 23.7056 55.1307C19.1592 55.2396 14.6226 55.2108 10.0914 55.182H10.0884L10.085 55.1819C9.60194 55.1789 9.11893 55.1758 8.63598 55.1729C5.2423 55.1488 4.48882 54.4315 4.48882 51.1403C4.46531 47.9639 4.47123 44.7876 4.47715 41.6117C4.4849 37.4589 4.49264 33.3068 4.43457 29.1567C4.39238 26.3176 5.51356 25.1723 8.36473 25.2446C10.374 25.2898 12.3833 25.2723 14.3926 25.2547C17.2056 25.2301 20.0186 25.2055 22.8316 25.3531C25.8455 25.5099 26.5749 24.3827 26.4483 21.5737C26.3186 18.6095 26.3415 15.6454 26.3644 12.6812C26.3788 10.8231 26.3931 8.96496 26.3699 7.10684C26.3337 4.35814 27.3886 3.06215 30.3121 3.19476C32.9072 3.31291 35.5082 3.28632 38.1089 3.25974Z" fill="white"/>
<path d="M355.334 52.5628V45.3294L355.352 45.3174C355.352 44.5137 355.355 43.7099 355.359 42.9062C355.365 41.2988 355.372 39.6914 355.352 38.084C355.35 37.9821 355.347 37.881 355.342 37.7811L355.339 37.6974C355.305 36.9369 355.275 36.2435 356.111 35.7271C358.173 34.4311 360.325 33.6897 362.658 34.7023C364.719 35.5884 365.027 37.5716 365.027 39.5246L365.027 52.5209L365.027 52.5618L365.027 52.6188L365.028 52.7329C365.036 53.9725 365.044 55.1276 363.26 55.3477C362.477 55.4442 362.254 56.27 362.417 57.0235C362.579 57.7769 363.218 57.8674 363.821 57.8674C367.136 57.8915 370.452 57.8915 373.767 57.8674C374.394 57.8674 374.936 57.7046 375.027 56.9029C375.117 56.1012 374.755 55.3658 373.96 55.3658C371.593 55.3289 371.642 53.8626 371.691 52.3824C371.698 52.1702 371.705 51.9577 371.705 51.7491C371.698 50.4495 371.706 49.1487 371.714 47.8479C371.733 44.8288 371.752 41.8092 371.579 38.8013C371.181 31.8753 367.299 29.1567 360.584 30.9651C359.598 31.1504 358.649 31.4966 357.775 31.9898C355.665 33.4063 353.929 33.8524 351.916 31.598C350.831 30.3683 348.83 30.2899 347.094 30.4527C344.494 30.7501 341.987 31.5966 339.74 32.9362L339.711 32.9527C338.542 33.6146 337.567 34.1667 337.292 32.0923C337.136 30.7842 336.207 30.2899 334.881 30.4949C333.296 30.7239 331.705 30.9229 330.113 31.0977C329.215 31.1941 328.552 31.5498 328.48 32.4901C328.407 33.4305 328.407 34.4974 329.516 34.7084C331.411 35.0684 331.41 36.3297 331.409 37.7684L331.409 52.6231C331.409 52.7376 331.411 52.8526 331.413 52.9671C331.431 54.0595 331.449 55.114 329.812 55.2995C328.992 55.3959 328.709 56.1012 328.781 56.8848C328.878 57.8312 329.619 57.9095 330.342 57.9095H339.384L339.386 57.9095C340.079 57.9035 340.861 57.8967 340.939 56.9089C341 56.1494 340.831 55.3959 339.957 55.3115C338.072 55.1199 338.106 53.8846 338.139 52.6518C338.141 52.6001 338.142 52.5485 338.144 52.4969C338.144 52.4669 338.145 52.4368 338.146 52.4069C338.147 52.3258 338.148 52.2451 338.148 52.165V39.5065C338.16 36.3057 340.324 34.407 344.032 34.2985C346.949 34.208 348.347 35.5583 348.474 39.0846C348.575 42.071 348.571 45.0574 348.566 48.0421V48.045C348.564 49.6801 348.562 51.3148 348.577 52.9486C348.589 54.1723 348.384 55.1247 346.901 55.2935C346.057 55.3899 345.798 56.0409 345.834 56.8366C345.876 57.8312 346.581 57.9095 347.311 57.9095H356.648C357.371 57.9035 358.113 57.8071 358.197 56.8667C358.269 56.1072 358.046 55.3417 357.178 55.3055C355.324 55.2252 355.329 54.0408 355.333 52.7569L355.334 52.67L355.334 52.5628Z" fill="white"/>
<path fill-rule="evenodd" clip-rule="evenodd" d="M112.176 57.9095H106.148C105.437 57.9095 104.678 57.8613 104.599 56.8848C104.521 55.9083 104.937 55.2513 105.925 55.2694C108.133 55.3215 108.129 53.9091 108.126 52.4023C108.126 52.3414 108.126 52.2804 108.126 52.2193L108.126 28.0309C108.126 26.2522 108.127 24.6227 105.684 24.5514C104.768 24.5514 104.599 23.8462 104.611 23.0686C104.611 22.1463 105.214 21.8148 105.974 21.863C108.615 22.0247 111.254 21.8399 113.894 21.655C117.75 21.3849 121.609 21.1147 125.48 21.9233C129.096 22.6768 132.014 24.0813 132.894 27.9511C133.852 32.1345 133.286 36.3901 129.832 38.9459C126.945 41.0979 127.312 42.0081 129.446 44.3288C130.712 45.7022 131.578 47.4536 132.438 49.1952C132.835 49.999 133.232 50.8008 133.666 51.5622C133.802 51.8086 133.931 52.0613 134.06 52.3137C134.703 53.5747 135.343 54.8294 136.945 55.2513C137.813 55.4803 137.921 56.2037 137.813 56.933C137.683 57.8543 136.916 57.8672 136.234 57.8787L136.191 57.8794C135.731 57.8794 135.269 57.875 134.808 57.8706H134.807C133.561 57.8587 132.314 57.8468 131.074 57.9216C129.374 58.0241 128.247 57.2646 127.584 55.6853C126.378 52.7196 125.13 49.7599 123.822 46.8364C123.315 45.7429 122.71 44.6977 122.014 43.714C120.555 41.5801 118.264 41.8333 116.257 42.2191C114.904 42.4751 114.941 44.0991 114.971 45.4065C114.976 45.6073 114.98 45.8007 114.979 45.9804C114.979 48.0842 114.979 50.1999 114.925 52.3036C114.859 54.0578 115.22 55.2693 117.336 55.2091C118.349 55.2091 119.5 55.2633 119.506 56.6738C119.506 58.0173 118.579 57.9558 117.747 57.9005C117.586 57.8899 117.428 57.8794 117.282 57.8794C116.144 57.9236 115.004 57.9089 113.865 57.8941L113.864 57.8941C113.295 57.8868 112.726 57.8794 112.158 57.8794L112.176 57.9095ZM114.961 31.7427C114.961 32.3454 114.967 32.9482 114.973 33.551C114.985 34.7566 114.997 35.9621 114.961 37.1677C114.907 38.9761 115.498 39.7718 117.372 39.7296C117.584 39.7251 117.796 39.722 118.009 39.719C120.653 39.681 123.316 39.6428 124.744 36.8362C125.581 35.2835 126.032 33.552 126.058 31.7882C126.085 30.0244 125.686 28.2803 124.895 26.7034C123.798 24.461 119.47 23.2796 116.498 24.1656C114.901 24.6555 114.953 26.4152 114.999 28.002C115.009 28.3678 115.02 28.7245 115.009 29.0542C114.961 29.9222 114.955 30.8385 114.961 31.7427Z" fill="white"/>
<path d="M242.908 52.9727V43.0388C242.908 41.2365 242.914 39.4282 242.92 37.6258C242.918 36.7695 242.924 36.0105 242.93 35.3386V35.3248C242.953 32.5848 242.963 31.2976 242.334 30.7627C241.777 30.2888 240.718 30.405 238.721 30.6243C237.795 30.7259 236.668 30.8496 235.295 30.947C235.229 30.9515 235.162 30.9553 235.095 30.959C234.354 31.001 233.606 31.0434 233.451 32.0441C233.399 32.2397 233.392 32.4444 233.43 32.6431C233.468 32.8418 233.551 33.0293 233.671 33.192C233.791 33.3546 233.947 33.4881 234.126 33.5825C234.304 33.677 234.502 33.7301 234.704 33.7379C236.326 34.0272 236.645 35.0881 236.645 36.589C236.573 41.2245 236.549 45.8418 236.645 50.4531C236.682 52.2615 235.898 53.2802 234.463 54.0698C230.22 56.3966 226.772 54.6726 226.555 49.8503C226.418 46.7924 226.445 43.7253 226.472 40.6577C226.483 39.4079 226.495 38.1579 226.495 36.9085C226.494 36.1025 226.502 35.3928 226.51 34.7689V34.7604L226.51 34.7572C226.538 32.3845 226.552 31.2546 226.001 30.7821C225.5 30.3525 224.533 30.4665 222.687 30.6841C221.734 30.7964 220.547 30.9364 219.068 31.0434C217.29 31.1881 216.971 32.6951 218.224 33.4546C219.795 34.4209 219.798 35.6308 219.801 36.9363C219.801 37.1537 219.802 37.3737 219.81 37.5957C219.868 39.3024 219.877 41.0074 219.885 42.7126C219.899 45.4098 219.913 48.1078 220.123 50.8148C220.708 58.2411 225.596 59.0729 230.817 58.3436C232.516 58.1085 233.987 57.1621 235.362 56.1253C235.426 56.0745 235.489 56.0216 235.552 55.9691C236.094 55.5175 236.609 55.0885 237.278 56.1253C238.737 58.3616 242.251 59.2357 244.663 58.1326C244.949 58.0475 245.201 57.8729 245.381 57.6342C245.561 57.3955 245.66 57.1054 245.663 56.8065C245.688 56.6548 245.679 56.4995 245.637 56.3517C245.595 56.204 245.52 56.0674 245.419 55.952C245.317 55.8367 245.191 55.7453 245.05 55.6846C244.909 55.6238 244.756 55.5952 244.602 55.6009C242.908 55.4502 242.908 54.2326 242.908 52.9727Z" fill="white"/>
<path d="M291.969 21.8208C293.232 21.8208 294.496 21.8296 295.759 21.8384C298.808 21.8597 301.858 21.8809 304.905 21.7786C307.045 21.7003 307.786 22.6527 307.846 24.5514C307.857 24.9068 307.872 25.2629 307.886 25.6195C307.912 26.2671 307.939 26.9162 307.943 27.5654C307.943 27.6905 307.948 27.8187 307.954 27.9472L307.954 27.948C307.988 28.7108 308.022 29.4825 306.882 29.6631C305.55 29.874 304.844 29.4219 304.266 28.2224C302.632 24.8528 300.806 24.0029 297.075 24.5394C295.869 24.7021 295.604 25.3109 295.604 26.3477V53.4188C295.604 55.0162 296.556 55.1729 297.738 55.2272C298.817 55.2874 299.865 55.5587 299.654 56.9391C299.487 58.0063 298.642 57.9681 297.875 57.9334C297.733 57.927 297.593 57.9207 297.46 57.9216C293.751 57.9578 290.042 57.9578 286.333 57.9216C286.252 57.9216 286.168 57.9231 286.084 57.9246C285.28 57.9387 284.389 57.9544 284.362 56.716C284.362 55.4683 285.248 55.2151 286.17 55.2573C288.22 55.3538 288.364 54.0939 288.358 52.5267C288.358 49.7119 288.351 46.9005 288.344 44.0908V44.0855C288.329 38.4733 288.314 32.8683 288.358 27.2579C288.358 25.1663 287.719 24.4429 285.598 24.5153C285.396 24.5229 285.195 24.5289 284.995 24.535C282.343 24.615 279.865 24.6899 279.304 28.2827C279.087 29.6992 277.9 29.8559 276.731 29.651C275.631 29.4537 275.717 28.6474 275.795 27.9216C275.812 27.7602 275.829 27.6027 275.832 27.4569C275.848 26.777 275.855 26.1778 275.862 25.65V25.6486C275.888 23.4951 275.9 22.5293 276.384 22.1104C276.778 21.7697 277.485 21.7908 278.766 21.8289C279.463 21.8497 280.33 21.8755 281.408 21.851C283.923 21.7824 286.426 21.7961 288.923 21.8097H288.926C289.941 21.8153 290.955 21.8208 291.969 21.8208Z" fill="white"/>
<path fill-rule="evenodd" clip-rule="evenodd" d="M377.558 41.3932C375.497 50.7485 380.964 58.4701 390.006 58.4701C392.875 58.6811 395.823 57.7709 398.553 56.1916C399.488 55.631 400.241 55.0102 399.656 53.8227C399.109 52.7105 398.36 53.0207 397.55 53.3567C397.495 53.3794 397.439 53.4023 397.384 53.4248C396.459 53.812 395.501 54.1146 394.521 54.329C389.005 55.4502 385.66 53.0993 384.502 47.5718C384.044 45.3897 384.659 44.6483 386.847 44.7086C390.554 44.805 394.274 44.7568 397.987 44.7086C398.136 44.7066 398.289 44.7129 398.442 44.7192C399.245 44.7523 400.067 44.7862 400.482 43.6477C402.411 38.3793 398.686 31.6643 393.146 30.5431C385.479 28.9759 379.367 33.2376 377.558 41.3932ZM394.213 39.6994C394.171 43.1835 389.264 42.7977 389.264 42.7977C389.264 42.7977 384.46 43.0027 384.37 40.3866C384.189 36.3238 386.449 33.1351 389.391 33.0326C392.333 32.9301 394.268 35.5884 394.213 39.6994Z" fill="white"/>
<path d="M177.759 58.4701C175.661 58.5291 173.564 58.3143 171.521 57.8312L171.367 57.7922C169.32 57.2721 168.293 57.011 167.811 56.3513C167.326 55.6861 167.395 54.6156 167.535 52.4657L167.535 52.465L167.536 52.4544C167.539 52.4171 167.541 52.3799 167.543 52.3427C167.545 52.3022 167.547 52.2619 167.55 52.2216C167.601 51.2637 167.649 50.383 169.049 50.4109C169.073 50.4109 169.097 50.4108 169.121 50.4107L169.167 50.4104L169.211 50.41L169.329 50.4086C170.339 50.396 171.342 50.3834 171.563 51.8455C172.117 55.5286 174.752 55.9867 177.82 55.9023C179.773 55.848 181.153 55.0765 181.714 53.2199C182.316 51.2367 181.153 49.9046 179.562 49.0546C178.283 48.3815 176.966 47.761 175.648 47.1396C174.605 46.6481 173.561 46.1559 172.533 45.6369C170.207 44.4614 168.398 42.8279 167.783 40.1455C166.614 35.0519 170.014 31.0675 176.156 30.4527C177.965 30.2728 179.758 30.4908 181.557 30.7094L181.559 30.7096C182.05 30.7693 182.542 30.829 183.034 30.8807C186.168 31.2062 187.175 32.689 186.687 35.6005C186.648 35.8275 186.661 36.0805 186.674 36.3339C186.711 37.0629 186.748 37.7944 185.553 37.9152C184.167 38.0598 183.142 37.9152 182.54 36.2394C181.497 33.2255 179.387 32.2731 176.463 33.1351C175.179 33.5148 174.016 34.1417 173.775 35.6668C173.628 36.304 173.659 36.9695 173.867 37.5898C174.074 38.21 174.449 38.7607 174.95 39.181C176.129 40.1079 177.431 40.8648 178.82 41.4294L178.912 41.4706C180.692 42.2652 182.515 43.0796 184.245 44.0455C187.145 45.673 188.525 48.1927 188.139 51.5562C187.754 54.9197 185.674 56.8426 182.533 57.8975C181.206 58.3265 179.871 58.3766 178.774 58.4178C178.406 58.4316 178.065 58.4444 177.759 58.4701Z" fill="white"/>
<path d="M211.973 31.2423C201.413 27.3604 192.015 33.7439 192.081 44.8412C192.202 49.8865 193.287 54.6244 198.085 57.1078C202.654 59.4587 207.41 59.1091 211.889 56.5051C211.948 56.4707 212.008 56.4364 212.069 56.4019C212.961 55.8922 213.922 55.3434 213.227 53.9432C212.66 52.7993 211.944 53.2014 211.275 53.5775C211.069 53.6928 210.868 53.8058 210.677 53.8709C204.354 56.0469 200.912 54.2024 199.454 47.5718C198.518 43.8455 198.822 39.9156 200.322 36.3781C200.724 35.3334 201.456 34.4485 202.407 33.8577C203.357 33.267 204.475 33.0027 205.59 33.1049C208.002 33.2241 208.367 35.0218 208.729 36.8015L208.756 36.9341L208.769 36.9977C208.778 37.0424 208.787 37.087 208.797 37.1315L208.806 37.1766C208.864 37.4473 208.926 37.7379 208.971 38.0176C209.237 39.4884 210.195 39.826 211.588 39.826C213.179 39.7959 213.396 38.8615 213.396 37.656C213.396 37.3739 213.394 37.0916 213.393 36.8093C213.386 35.6799 213.379 34.5505 213.48 33.4365C213.595 32.2008 213.07 31.6462 211.973 31.2423Z" fill="white"/>
<path d="M321.626 43.1353C321.626 44.1721 321.629 45.2089 321.633 46.2457C321.639 48.3193 321.646 50.3928 321.626 52.4664L321.626 52.5777C321.625 54.0329 321.624 55.3063 323.657 55.3357C323.862 55.3201 324.067 55.3527 324.257 55.4311C324.446 55.5095 324.615 55.6313 324.749 55.7868C324.882 55.9423 324.978 56.127 325.027 56.3262C325.076 56.5253 325.078 56.7332 325.032 56.933C324.911 57.8734 324.128 57.8975 323.428 57.9035H313.181L313.101 57.9037C312.449 57.9053 311.699 57.9071 311.572 56.9692C311.439 55.9927 311.801 55.2814 312.777 55.2935C315.017 55.2935 315.001 53.8857 314.983 52.2842V52.2795C314.941 47.4573 314.923 42.635 314.983 37.8127C314.983 36.2214 314.754 35.058 312.922 34.7988C311.716 34.6119 311.331 33.774 311.451 32.5926C311.572 31.4111 312.458 31.2604 313.38 31.1519L318.751 30.507C320.788 30.2658 321.692 31.1097 321.62 33.2255C321.568 35.3862 321.587 37.5574 321.606 39.7338V39.7381C321.616 40.8693 321.626 42.0019 321.626 43.1353Z" fill="white"/>
<path d="M317.654 26.0041C320.017 25.9017 321.662 24.232 321.614 21.5616C321.415 19.7653 320.228 18.5658 317.949 18.5356C315.568 18.5055 313.549 20.4163 313.82 22.6828C314.073 24.7986 315.291 26.1066 317.654 26.0041Z" fill="white"/>
<path fill-rule="evenodd" clip-rule="evenodd" d="M261.456 58.1507C252.414 58.1507 246.941 50.429 249.008 41.0738C250.817 32.9181 256.929 28.6564 264.596 30.2236C270.136 31.3508 273.861 38.0598 271.932 43.3342C271.517 44.4699 270.692 44.4371 269.887 44.4052C269.736 44.3992 269.584 44.3932 269.437 44.3951L268.616 44.4046L268.615 44.4046C265.175 44.4445 261.731 44.4844 258.297 44.3951C256.109 44.3348 255.494 45.0823 255.953 47.2583C257.11 52.7859 260.449 55.1367 265.971 54.0156C266.949 53.8021 267.905 53.4994 268.828 53.1114C268.864 53.0971 268.9 53.0826 268.936 53.0681L269.015 53.0361C269.823 52.7074 270.563 52.4061 271.107 53.5092C271.691 54.6967 270.938 55.3176 270.003 55.8842C267.249 57.4695 264.325 58.3737 261.456 58.1507ZM260.715 42.4783C260.715 42.4783 265.621 42.864 265.663 39.386C265.718 35.2689 263.783 32.6107 260.841 32.7192C257.9 32.8277 255.639 36.0164 255.802 40.0792C255.904 42.7013 260.715 42.4783 260.715 42.4783Z" fill="white"/>
<path fill-rule="evenodd" clip-rule="evenodd" d="M140.085 41.6765C138.024 51.0318 143.491 58.7595 152.533 58.7595C155.402 58.9765 158.326 58.0723 161.08 56.487C162.015 55.9264 162.768 55.3115 162.183 54.118C161.639 53.0075 160.897 53.3113 160.092 53.6405C160.032 53.6651 159.972 53.6899 159.911 53.7142C158.986 54.1033 158.028 54.4079 157.048 54.6244C151.526 55.7395 148.187 53.3947 147.029 47.8611C146.571 45.6851 147.186 44.9376 149.374 44.9979C152.808 45.0872 156.252 45.0473 159.692 45.0074C159.966 45.0042 160.24 45.001 160.514 44.9979C160.661 44.996 160.812 45.002 160.964 45.008C161.768 45.0399 162.593 45.0727 163.009 43.937C164.938 38.6626 161.213 31.9536 155.673 30.8264C148.006 29.2652 141.894 33.5209 140.085 41.6765ZM156.74 39.9948C156.698 43.4789 151.791 43.0871 151.791 43.0871V43.081C151.791 43.081 146.987 43.3041 146.873 40.688C146.716 36.6192 148.976 33.4305 151.918 33.328C154.86 33.2255 156.794 35.8778 156.74 39.9948Z" fill="white"/>
</svg>
