<svg width="400" height="79" viewBox="0 0 400 79" fill="none" xmlns="http://www.w3.org/2000/svg">
<path d="M27.1449 78.2648C24.9282 78.0432 22.7983 77.2875 20.9377 76.0623C19.0771 74.8372 17.5413 73.1791 16.4619 71.2303C13.099 65.4719 9.87431 59.626 6.45612 53.8768C4.50288 50.5968 4.61344 47.455 6.43309 44.2534C11.3346 35.6849 16.2638 27.1164 21.1423 18.5156C21.5385 17.82 21.603 16.9401 21.8334 16.1432C20.9627 16.0418 19.9031 15.5858 19.2536 15.9175C18.0466 16.544 16.7614 17.4331 16.0657 18.5571C13.2556 23.1039 10.639 27.7705 7.98556 32.4141C6.24422 35.4576 4.53819 38.5288 2.86749 41.6276C2.35154 42.5489 2.00143 43.5992 1.48548 44.797C-0.103843 41.7704 -0.453953 38.6746 0.610199 35.7309C1.67435 32.7873 3.33277 29.9219 4.88063 27.121C7.07803 23.1408 9.53341 19.2896 11.6525 15.2863C13.6749 11.4443 16.6923 9.72142 20.9811 9.75827C30.5308 9.80434 40.0806 9.73524 49.6303 9.7122C49.7434 9.72827 49.8581 9.72827 49.9712 9.7122C50.8925 9.40816 51.8139 9.0903 52.7352 8.79086C52.0995 7.86952 51.5789 6.78694 50.7774 6.02683C50.3167 5.56616 49.3953 5.47863 48.6721 5.47863C39.4587 5.4602 30.2544 5.47249 21.0594 5.51548C20.1624 5.56517 19.2688 5.66514 18.3829 5.81492L18.0328 5.28975C19.4563 4.12425 20.783 2.79752 22.3171 1.82089C24.496 0.438879 26.9883 -0.0217931 29.5726 0.00124045C36.1879 0.00124045 42.8031 0.074948 49.4184 0.00124045C53.0715 -0.0494335 55.7434 1.45236 57.5538 4.52504C62.4508 12.854 67.2971 21.2152 72.1802 29.5487C72.7422 30.5069 73.4102 31.3914 74.0229 32.3634C75.8656 30.7695 76.4322 28.8485 75.345 26.9505C70.6461 18.7782 65.8505 10.652 61.0642 2.53494C60.6077 1.8719 60.1026 1.24366 59.5532 0.655395C61.0457 0.305284 63.4643 0.775169 65.2839 2.21707C66.97 3.54841 68.7251 5.02256 69.8354 6.82379C73.6083 12.9369 77.1646 19.1882 80.698 25.4534C82.2597 28.2174 82.0109 31.1288 80.4538 33.8652C75.5154 42.5627 70.5218 51.2326 65.6064 59.9439C65.1687 60.7178 65.1457 61.7175 64.9016 62.6112C65.8966 62.6112 67.1128 62.9659 67.8499 62.5236C69.114 61.775 70.1815 60.7359 70.964 59.4924C75.0778 52.5823 79.0718 45.5801 83.0428 38.5733C83.9135 37.0393 84.517 35.3486 85.2679 33.6856C86.257 35.5737 86.7509 37.682 86.7033 39.813C86.6558 41.944 86.0684 44.0281 84.9961 45.8703C81.647 51.965 78.0169 57.9077 74.6263 63.9793C72.6408 67.5311 69.5912 68.7749 65.7446 68.7703C56.4805 68.7703 47.221 68.7934 37.9569 68.8118C37.4418 68.7563 36.9218 68.7656 36.409 68.8394C35.566 69.056 34.7598 69.4107 33.9398 69.7055C34.4005 70.5301 34.64 71.6219 35.3218 72.1148C36.2482 72.7774 37.3485 73.1538 38.4866 73.1974C47.1703 73.2757 55.8586 73.2573 64.5468 73.1974C65.9657 73.1974 67.38 72.8335 69.0384 72.6077C66.7765 75.7265 63.971 78.0437 60.3639 78.2187C52.3344 78.6195 44.2773 78.5228 36.2293 78.5366C33.2166 78.5366 30.9823 76.9473 29.4713 74.4228C26.4631 69.3876 23.5332 64.288 20.5711 59.2483C18.3 55.3786 16.0473 51.4997 13.7393 47.6577C13.3688 47.1707 12.9333 46.7367 12.4449 46.3679C11.9971 46.8439 11.5946 47.3606 11.2425 47.9111C10.4179 49.4774 10.9615 50.9377 11.7585 52.329C15.1997 58.3177 18.6179 64.3064 22.1098 70.2537C23.7037 72.9625 25.4496 75.5745 27.1449 78.2648ZM43.6784 63.2745V63.0165C47.4099 63.0165 51.1505 62.9336 54.882 63.0488C56.8352 63.1133 57.9546 62.261 58.8437 60.6441C62.0316 54.8581 65.0904 48.9891 68.5777 43.3873C70.5909 40.1626 70.9502 37.6427 68.633 34.2844C64.9476 28.9499 61.8842 23.1961 58.5904 17.5989C58.1753 16.8081 57.5394 16.155 56.76 15.7191C55.9805 15.2832 55.0912 15.0832 54.2002 15.1435C46.7833 15.2633 39.3711 15.4015 31.9589 15.4015C30.0425 15.4015 28.854 16.0833 27.9511 17.7371C24.7724 23.5278 21.7504 29.429 18.1987 34.9893C16.0105 38.4167 15.9782 41.0287 18.2816 44.4146C21.8656 49.6755 24.9199 55.3003 28.1446 60.8053C29.2179 62.648 30.646 63.4081 32.8158 63.3206C36.4274 63.1686 40.0575 63.2745 43.6784 63.2745Z" fill="white"/>
<path d="M147.961 28.8946C145.538 35.2918 143.116 41.689 140.696 48.0862C138.821 53.0338 136.9 57.9676 135.085 62.9336C134.56 64.3617 133.703 64.9099 132.247 64.8546C130.234 64.7717 128.216 64.804 126.203 64.8546C124.89 64.8823 124.103 64.394 123.66 63.0672C118.694 47.991 113.705 32.9224 108.693 17.8615C107.914 15.5121 108.348 14.9593 110.835 14.9731C112.563 14.9731 114.29 15.0836 116.013 15.033C117.432 14.9869 118.183 15.4936 118.625 16.9217C122.029 27.6646 125.508 38.389 128.963 49.1181C129.138 49.6571 129.35 50.1822 129.718 51.1819C130.179 50.1039 130.515 49.4267 130.773 48.7219C134.597 38.366 138.412 28.0055 142.221 17.6404C143.142 15.1067 143.142 15.0975 145.934 15.0975C147.832 15.0975 149.734 15.1666 151.628 15.0975C153.01 15.033 153.705 15.6088 154.161 16.8803C157.653 26.5943 161.185 36.316 164.757 46.0454C165.319 47.5886 165.913 49.1181 166.664 51.1128C167.083 50.1592 167.341 49.6801 167.512 49.1734C171.022 38.647 174.56 28.1253 177.996 17.5759C178.582 15.7793 179.379 14.8487 181.396 15.0744C182.947 15.1682 184.502 15.1789 186.054 15.1067C188.597 15.1067 188.974 15.7055 188.113 18.1609C185.717 24.9881 183.33 31.826 180.949 38.6746C178.125 46.764 175.274 54.8488 172.482 62.9521C172.022 64.2972 171.275 64.9145 169.833 64.8592C167.819 64.7855 165.804 64.7855 163.789 64.8592C162.407 64.9099 161.707 64.2926 161.246 63.0442C157.229 52.2061 153.192 41.3742 149.135 30.5484C148.924 29.9772 148.652 29.429 148.403 28.8669L147.961 28.8946Z" fill="white"/>
<path d="M303.433 43.3412C305.031 53.3655 313.858 57.8202 322.542 56.6455C324.839 56.3835 327.049 55.6135 329.011 54.3912C330.974 53.1689 332.64 51.525 333.888 49.5787C334.749 48.2843 335.638 48.1461 336.905 48.9476C338.172 49.7492 339.503 50.4218 340.816 51.1404C342.926 52.3013 343.092 52.9831 341.705 54.8995C336.228 62.5559 328.604 65.9556 319.4 65.7023C309.306 65.4351 301.139 61.3581 296.477 52.0664C288.954 37.0669 296.79 18.2899 313.982 14.5677C325.038 12.1768 336.094 16.6637 341.738 26.0062C344.645 30.811 345.395 36.1087 345.156 41.6183C345.11 42.6963 344.525 43.1616 343.516 43.2077C343 43.2077 342.484 43.2077 341.963 43.2077H305.745C305.018 43.2307 304.294 43.2814 303.433 43.3412ZM304.11 34.6484H334.611C334.491 29.9449 330.064 23.3297 320.869 22.7769C312.932 22.2978 304.884 27.8258 304.11 34.6484Z" fill="white"/>
<path d="M242.177 39.9C242.177 54.1025 230.449 65.7529 216.177 65.7483C212.771 65.7743 209.395 65.1207 206.245 63.8256C203.095 62.5306 200.236 60.6201 197.833 58.2062C195.431 55.7923 193.534 52.9233 192.254 49.7673C190.974 46.6113 190.337 43.2317 190.379 39.8263C190.425 25.3059 201.799 13.8951 216.177 13.9366C230.776 13.9734 242.187 25.3889 242.177 39.9ZM216.191 23.4218C207.438 23.4494 200.436 30.7925 200.427 39.9231C200.427 48.9338 207.613 56.3506 216.338 56.3276C224.962 56.3276 232.098 48.8923 232.093 39.9553C232.089 30.7142 225.05 23.3895 216.191 23.4218Z" fill="white"/>
<path d="M363.937 22.2747C364.352 21.9276 364.747 21.5585 365.121 21.1691C370.189 15.1021 376.873 13.5726 384.285 14.8809C393.499 16.5025 399.428 23.173 399.773 32.7412C400.146 42.9174 399.934 53.1167 399.985 63.3068C399.985 64.6888 399.289 65.2692 397.944 65.2508C396.046 65.2278 394.148 65.2508 392.25 65.2508C390.182 65.2508 389.707 64.7901 389.703 62.7125C389.703 55.0515 389.758 47.3952 389.661 39.7388C389.625 36.9425 389.588 34.0495 388.897 31.373C387.556 26.1904 383.746 23.6429 378.541 23.2191C373.335 22.7953 369.083 24.7347 366.241 29.2908C364.513 32.0548 364.002 35.1781 363.997 38.389C363.997 46.4508 363.997 54.5125 363.997 62.5697C363.997 65.0205 363.762 65.2508 361.344 65.2554C359.676 65.2554 358.009 65.2554 356.341 65.2554C354.227 65.2554 353.955 64.979 353.955 62.8553C353.955 52.5516 353.955 42.2464 353.955 31.9396C353.955 27.2776 353.955 22.611 353.955 17.949C353.955 15.724 354.18 15.5213 356.456 15.5121C358.299 15.5121 360.142 15.5627 361.984 15.5121C363.422 15.4614 363.951 16.1478 363.928 17.4883C363.901 18.9349 363.937 20.3952 363.937 22.2747Z" fill="white"/>
<path d="M268.472 51.7762C270.195 47.0451 271.734 42.8023 273.282 38.5595C275.945 31.267 278.63 23.9884 281.247 16.6776C281.708 15.4384 282.376 14.9639 283.665 15.0191C285.559 15.0929 287.461 15.0191 289.359 15.0422C291.63 15.0422 292.068 15.6641 291.285 17.7647C289.092 23.6399 286.885 29.5073 284.665 35.367C281.345 44.1382 278.019 52.9048 274.687 61.6668C273.508 64.7809 273.512 64.7855 270.274 64.7855C268.546 64.7855 266.819 64.7441 265.096 64.7855C263.751 64.827 262.986 64.2604 262.507 63.0027C258.514 52.5823 254.508 42.1696 250.488 31.7646C248.733 27.1993 246.996 22.634 245.232 18.0734C244.31 15.6595 244.688 15.0376 247.235 15.0238C249.018 15.0238 250.81 15.1251 252.584 14.9915C254.27 14.8625 255.03 15.5904 255.583 17.1152C259.554 28.0331 263.599 38.9234 267.629 49.8229C267.814 50.3435 268.058 50.8272 268.472 51.7762Z" fill="white"/>
</svg>
